<svg width="203" height="44" viewBox="0 0 203 44" fill="none" xmlns="http://www.w3.org/2000/svg">
<path d="M64.0388 6.12174V33.8609H70.0957V6.12174H79.1344V0.382607H55V6.12174H64.0388Z" fill="#04142E"/>
<path d="M81.2599 17.2174C81.8656 15.3522 83.2168 14.4435 85.3134 14.4435C88.0623 14.4435 89.4135 15.6391 89.4135 17.9826V19.0348H85.4998C79.5361 19.0348 75.4826 22.1435 75.4826 26.9261C75.4826 31.5652 78.4645 34.2435 82.6111 34.2435C85.593 34.2435 88.0157 33.0957 89.8328 30.8L90.4385 33.8609H95.1908V19.4652C95.1908 12.7217 91.8828 9.37391 85.3134 9.37391C80.6077 9.37391 77.1133 12.0522 76.3678 16.0696L81.2599 17.2174ZM81.5395 26.8304C81.5395 24.7739 82.8906 23.7217 85.5464 23.7217H89.4135V24.2C89.4135 25.6826 88.8544 26.8783 87.7362 27.787C86.6646 28.6957 85.4066 29.1739 83.9623 29.1739C82.4247 29.1739 81.5395 28.1217 81.5395 26.8304Z" fill="#04142E"/>
<path d="M98.9688 33.8609H104.746V24.2478C104.746 18.1739 107.122 14.4435 110.104 14.4435C112.341 14.4435 113.459 15.7826 113.459 18.413V33.8609H119.236V16.6435C119.236 11.9087 116.347 9.37391 112.014 9.37391C109.079 9.37391 106.656 10.8087 104.746 13.6304V9.75652H98.9688V33.8609Z" fill="#04142E"/>
<path d="M124.127 17.5043C124.127 19.4652 124.686 21.0913 125.757 22.4783C123.847 23.6739 122.869 25.3478 122.869 27.5478C122.869 29.0304 123.288 30.2739 124.08 31.2783C122.822 32.4739 122.17 34.1 122.17 36.0609C122.17 38.5956 123.148 40.5565 125.105 41.9435C127.109 43.3304 130.699 44 133.821 44C137.548 44 139.642 43.0435 141.831 40.413C142.903 39.1217 143.462 37.5435 143.462 35.6783C143.462 31.1348 140.247 28.6 135.215 28.6H130.417C128.972 28.6 128.227 28.0261 128.227 26.8304C128.227 26.0652 128.6 25.4435 129.345 25.013C130.417 25.3478 131.581 25.5391 132.746 25.5391C135.215 25.5391 137.266 24.8217 138.896 23.387C140.527 21.9043 141.366 19.9435 141.366 17.5043C141.366 16.0696 141.039 14.7783 140.434 13.6783L143.788 11.9565L141.505 8.03478L137.079 10.4261C135.728 9.7087 134.284 9.37391 132.746 9.37391C130.277 9.37391 128.227 10.1391 126.596 11.6217C124.965 13.1043 124.127 15.0652 124.127 17.5043ZM133.911 33.5739C136.427 33.5739 137.685 34.387 137.685 36.0609C137.685 38.0217 136.054 39.0261 132.793 39.0261C129.625 39.0261 127.528 37.8304 127.528 35.5826C127.528 34.6261 127.714 33.9087 128.04 33.3826C128.786 33.5261 129.671 33.5739 130.743 33.5739H133.911ZM129.531 17.5043C129.531 15.5435 130.882 14.1565 132.746 14.1565C134.61 14.1565 135.961 15.5435 135.961 17.5043C135.961 19.4174 134.61 20.7565 132.746 20.7565C130.882 20.7565 129.531 19.4174 129.531 17.5043Z" fill="#04142E"/>
<path d="M166.604 21.2826C166.604 18.5565 165.765 15.7348 164.088 13.3913C162.411 10.9522 159.382 9.37391 155.655 9.37391C147.595 9.37391 144.38 16.0696 144.38 21.8087C144.38 27.5478 147.595 34.2435 155.655 34.2435C160.78 34.2435 164.321 31.9 166.324 27.213L161.665 25.4435C160.268 27.9304 158.357 29.1739 155.981 29.1739C152.627 29.1739 150.577 26.6391 150.437 23.7217H166.604V21.2826ZM155.655 14.4435C158.357 14.4435 160.035 15.9739 160.687 19.0348H150.577C150.996 16.5 152.906 14.4435 155.655 14.4435Z" fill="#04142E"/>
<path d="M169.854 33.8609H175.631V0H169.854V33.8609Z" fill="#04142E"/>
<path d="M182.36 30.7522C184.503 33.0957 187.392 34.2435 191.073 34.2435C194.753 34.2435 197.642 33.0957 199.785 30.7522C201.928 28.4087 203 25.3957 203 21.8087C203 18.2217 201.928 15.2565 199.785 12.913C197.642 10.5696 194.753 9.37391 191.073 9.37391C187.392 9.37391 184.503 10.5696 182.36 12.913C180.217 15.2565 179.145 18.2217 179.145 21.8087C179.145 25.3957 180.217 28.4087 182.36 30.7522ZM186.786 16.5956C187.858 15.1609 189.255 14.4435 191.073 14.4435C192.89 14.4435 194.287 15.1609 195.359 16.5956C196.431 17.9826 196.943 19.7522 196.943 21.8087C196.943 23.8652 196.431 25.6348 195.359 27.0696C194.287 28.4565 192.89 29.1739 191.073 29.1739C189.255 29.1739 187.858 28.4565 186.786 27.0696C185.715 25.6348 185.202 23.8652 185.202 21.8087C185.202 19.7522 185.715 17.9826 186.786 16.5956Z" fill="#04142E"/>
<circle cx="35" cy="20" r="12" fill="#4835FF"/>
<path d="M23 9C19.8174 9 16.7652 10.1589 14.5147 12.2218C12.2643 14.2847 11 17.0826 11 20C11 22.9174 12.2643 25.7153 14.5147 27.7782C16.7652 29.8411 19.8174 31 23 31L23 9Z" fill="#EB685C"/>
<path d="M11 9C8.08262 9 5.28473 10.1589 3.22183 12.2218C1.15893 14.2847 2.20262e-07 17.0826 0 20C-2.2025e-07 22.9174 1.15892 25.7153 3.22182 27.7782C5.28472 29.8411 8.08262 31 11 31L11 9Z" fill="#FAAE60"/>
</svg>
